<svg height='100px' width='100px'  fill="#1da1f2" xmlns="http://www.w3.org/2000/svg" xmlns:xlink="http://www.w3.org/1999/xlink" version="1.1" x="0px" y="0px" viewBox="0 0 100 100" style="enable-background:new 0 0 100 100;" xml:space="preserve"><g><path style="" d="M92.2,51.9H72.9c-0.2,1.6,0.3,8.1-0.1,9.6l11.6,11c1.3,0.3,2.2,3.3,2.2,4.7   v14.1c0,1.6-1.3,2.8-2.8,2.8c-1.6,0-2.8-1.3-2.8-2.8l-0.3-14.1L71,70c-4.7,9.7-10.6,18.7-22.8,18.7s-16.6-9.9-21.4-19.2l-7.8,7.7   v14.1c0,1.6-1.3,2.8-2.8,2.8c-1.6,0-2.8-1.3-2.8-2.8V77.2c0-1.3,0.9-4.4,2.1-4.7L25,60.8c-0.7-2.2-1.1-6.4-0.7-8.8H7.8   c-1.6,0-2.8-1.3-2.8-2.8l0,0c0-1.6,1.3-2.8,2.8-2.8h16.5c0-3.7,0.3-4.9,0.8-6c0,0-9.6-12.1-11.6-14.5V9.7c0-1.6,1.3-2.8,2.8-2.8   c1.6,0,2.8,1.3,2.8,2.8v14.1l7.9,9.9c1.3-3.5,7.6-8,7.6-8S32.3,5.9,49,5.9c16.7,0,14.4,19.8,14.4,19.8s5,2.7,6.7,8.2l10.8-10.1V9.7   c0-1.6,1.3-2.8,2.8-2.8c1.6,0,2.8,1.3,2.8,2.8v16.1c-2.7,4.1-14.9,15.3-14.9,15.3c1,2.7,0.3,2.1,0.8,5.2h19.8   c1.6,0,2.8,1.3,2.8,2.8l0,0C95,50.7,93.7,51.9,92.2,51.9z" fill-rule="evenodd" clip-rule="evenodd"></path></g></svg>